<svg width="48" height="47" viewBox="0 0 48 47" fill="none" xmlns="http://www.w3.org/2000/svg">
<path d="M15.2297 30.0005V29.5805L17.0697 29.2805V14.7205L15.2297 14.4405V14.0005H21.1097V14.4405L19.2697 14.7205V21.9205L25.7697 15.2805L23.5897 14.4405V14.0005H28.2097V14.4405L26.5697 15.2805L22.0297 19.8405L28.4297 29.2805L29.7897 29.5805V30.0005H23.8897V29.5805L25.7097 29.3005L20.4697 21.4005L19.2697 22.6205V29.2805L21.1097 29.5805V30.0005H15.2297ZM31.3953 30.2005C31.062 30.2005 30.7753 30.0872 30.5353 29.8605C30.3086 29.6205 30.1953 29.3338 30.1953 29.0005C30.1953 28.6672 30.3086 28.3938 30.5353 28.1805C30.7753 27.9538 31.062 27.8405 31.3953 27.8405C31.7286 27.8405 32.0086 27.9538 32.2353 28.1805C32.462 28.3938 32.5753 28.6672 32.5753 29.0005C32.5753 29.3338 32.462 29.6205 32.2353 29.8605C32.0086 30.0872 31.7286 30.2005 31.3953 30.2005Z" fill="#17262F"/>
<rect x="1.29785" y="0.5" width="45.4045" height="45.4045" stroke="#323232"/>
</svg>
